<svg xmlns="http://www.w3.org/2000/svg" viewBox="0 0 150.52 146.01"><g data-name="Layer 2"><g data-name="Layer 1"><rect width="71.62" height="104.26" rx="3" ry="3" fill="#d8eaff"/><path fill="none" stroke="#2088ff" stroke-linecap="round" stroke-linejoin="round" stroke-width="2" d="M7.01 14.43h32.84"/><circle cx="56.61" cy="14.43" r="8.82" fill="#2087ff"/><rect x="6.01" y="30.63" width="59.85" height="26.25" rx="2" ry="2" fill="#f1f8ff"/><rect x="6.01" y="63.13" width="59.85" height="26.25" rx="2" ry="2" fill="#f1f8ff"/><rect x="78.9" y="43.75" width="71.62" height="102.26" rx="3" ry="3" fill="#d8eaff"/><circle cx="135.51" cy="58.18" r="8.82" fill="#2087ff"/><rect x="84.91" y="74.38" width="59.85" height="26.25" rx="2" ry="2" fill="#b9d8fb" opacity=".6"/><path d="M139.4 54.3s-4.3.05-5.79 4h-1.81l-1.8 1.78h1.81l1.25.48.55 1.32v1.81l1.81-1.81v-1.8a6.46 6.46 0 0 0 3.98-5.78z" fill="#fff"/><rect x="85.41" y="106.88" width="59.85" height="26.25" rx="2" ry="2" fill="#f1f8ff"/><path d="M63.2 64.08a4 4 0 0 0-4 4v22.08a4 4 0 0 0 4 4h8.42V64.08zm54.65 26.08V68.08a4 4 0 0 0-4-4h-35v30.08h35a4 4 0 0 0 4-4z" style="mix-blend-mode:multiply" opacity=".04"/><path fill="none" stroke="#2088ff" stroke-linecap="round" stroke-linejoin="round" stroke-width="2" d="M85.91 58.18h33.39"/><rect x="50.6" y="56.08" width="59.85" height="26.25" rx="2" ry="2" fill="#fff"/><circle cx="100.96" cy="73.84" r="3.49" fill="#2087ff"/><path fill="none" stroke="#2088ff" stroke-linecap="round" stroke-linejoin="round" stroke-width="2" d="M57.77 63.13h9.74"/><path fill="none" stroke="#d8eaff" stroke-linecap="round" stroke-linejoin="round" stroke-width="2" d="M57.77 74.05h31.37"/><path d="M56.61 15.85a.78.78 0 0 0 .78-.78V9.94a.78.78 0 1 0-1.56 0v5.13a.78.78 0 0 0 .78.78z" fill="#fff"/><circle cx="56.61" cy="18.65" r="1.05" fill="#fff"/></g></g></svg>