<svg xmlns="http://www.w3.org/2000/svg" viewBox="0 0 174.75 146.67"><g data-name="Layer 2"><g data-name="Layer 1"><path fill="none" stroke="#dbedff" stroke-linecap="round" stroke-linejoin="round" stroke-width="2" d="M111.82 36.24v16.38"/><path fill="none" stroke="#2088ff" stroke-linecap="round" stroke-linejoin="round" stroke-width="2" d="M111.82 93.24v14.3"/><path fill="none" stroke="#dbedff" stroke-linecap="round" stroke-linejoin="round" stroke-width="2" d="M84.14 72.93h7.37m-55.27 0h7.37"/><path fill="none" stroke="#2088ff" stroke-linecap="round" stroke-linejoin="round" stroke-width="2" d="M131.14 72.93h7.37"/><circle cx="63.88" cy="72.92" r="14.98" fill="#d8eaff"/><circle cx="15.98" cy="72.92" r="14.98" fill="none" stroke="#dbedff" stroke-linecap="round" stroke-linejoin="round" stroke-width="2" stroke-dasharray="3.9196419715881348,3.9196419715881348"/><circle cx="158.77" cy="72.92" r="14.98" fill="none" stroke="#2088ff" stroke-linecap="round" stroke-linejoin="round" stroke-width="2" stroke-dasharray="4,4"/><circle cx="111.83" cy="14.98" r="14.98" fill="#d8eaff"/><rect x="99.43" y="117.57" width="24.79" height="24.79" rx="2" ry="2" transform="rotate(-45 111.825 129.97)" fill="#d8eaff"/><path d="M111.86 57.94a15.42 15.42 0 0 0-4.74 29.94c.76.15 1-.33 1-.75v-2.85c-4.17.93-5.08-1.8-5.08-1.8a3.85 3.85 0 0 0-1.66-2.25c-1.36-1 .09-.93.09-.93a3.17 3.17 0 0 1 2.3 1.59 3.14 3.14 0 0 0 4.38 1.26 3.34 3.34 0 0 1 1-2.07c-3.32-.39-6.83-1.71-6.83-7.62a6.24 6.24 0 0 1 1.54-4.14 5.72 5.72 0 0 1 .15-4.08s1.27-.42 4.14 1.56a15.68 15.68 0 0 1 3.75-.54 13 13 0 0 1 3.75.54c2.87-2 4.14-1.56 4.14-1.56a5.74 5.74 0 0 1 .15 4.08 6 6 0 0 1 1.54 4.14c0 5.91-3.5 7.2-6.86 7.59a3.71 3.71 0 0 1 1 2.85v4.23c0 .51.27.9 1 .75a15.35 15.35 0 0 0 10.24-14.58 15.09 15.09 0 0 0-15-15.36" fill="#2087ff" fill-rule="evenodd"/></g></g></svg>